# File created by Blade
# Date/Time:  Thu Jan 22 16:31:19 2015
#---------------------------------------------------------
:version 1.10
:name HOM
:units
  mass 1.0
  length 1.000000
  angle deg
:documentation
     Acclaim Skeleton File
:root
   axis xyz
   order TX TY TZ RX RY RZ
   position 0.000000 0.000000 0.000000
   orientation 0 0 0
:bonedata
   begin
      id 1
      name RightUpLeg_dum
      direction -1.000000 0.000000 0.000000
      length 3.766986
      axis 0.0 0.0 0.0 xyz
   end
   begin
      id 2
      name LeftUpLeg_dum
      direction 1.000000 0.000000 0.000000
      length 3.766986
      axis 0.0 0.0 0.0 xyz
   end
   begin
      id 3
      name Spine_dum
      direction 0.000000 1.000000 0.000000
      length 7.779697
      axis 0.0 0.0 0.0 xyz
   end
   begin
      id 4
      name RightUpLeg
      direction 0.000000 -1.000000 0.000000
      length 18.017682
      axis 0.0 0.0 0.0 xyz
      dof rx ry rz
   end
   begin
      id 5
      name RightLeg
      direction 0.000000 -1.000000 0.000000
      length 16.881075
      axis 0.0 0.0 0.0 xyz
      dof rx ry rz
   end
   begin
      id 6
      name RightFoot
      direction 0.000000 -0.258819 0.965926
      length 5.770812
      axis 15.0 0.0 0.0 xyz
      dof rx ry rz
   end
   begin
      id 7
      name RightToeBase
      direction 0.000000 0.000000 1.000000
      length 2.952750
      axis 0.0 0.0 0.0 xyz
      dof rx ry rz
   end
   begin
      id 8
      name LeftUpLeg
      direction 0.000000 -1.000000 0.000000
      length 18.017682
      axis 0.0 0.0 0.0 xyz
      dof rx ry rz
   end
   begin
      id 9
      name LeftLeg
      direction 0.000000 -1.000000 0.000000
      length 16.881075
      axis 0.0 0.0 0.0 xyz
      dof rx ry rz
   end
   begin
      id 10
      name LeftFoot
      direction 0.000000 -0.258819 0.965926
      length 5.770812
      axis 15.0 0.0 0.0 xyz
      dof rx ry rz
   end
   begin
      id 11
      name LeftToeBase
      direction 0.000000 0.000000 1.000000
      length 2.952750
      axis 0.0 0.0 0.0 xyz
      dof rx ry rz
   end
   begin
      id 12
      name Spine
      direction 0.000000 1.000000 0.000000
      length 0.000000
      axis 0.0 0.0 0.0 xyz
      dof rx ry rz
   end
   begin
      id 13
      name Spine_dum1
      direction 0.000000 1.000000 0.000000
      length 10.941760
      axis 0.0 0.0 0.0 xyz
   end
   begin
      id 14
      name Spine_dum2
      direction 0.000000 1.000000 0.000000
      length 10.941760
      axis 0.0 0.0 0.0 xyz
   end
   begin
      id 15
      name Spine_dum3
      direction 0.000000 1.000000 0.000000
      length 16.646042
      axis 0.0 0.0 0.0 xyz
   end
   begin
      id 16
      name RightShoulder
      direction -1.000000 0.000000 0.000000
      length 7.708937
      axis 0.0 0.0 90.0 xyz
      dof rx ry rz
   end
   begin
      id 17
      name RightArm
      direction -1.000000 0.000000 0.000000
      length 11.521345
      axis 0.0 0.0 90.0 xyz
      dof rx ry rz
   end
   begin
      id 18
      name RightForeArm
      direction -1.000000 0.000000 0.000000
      length 10.175898
      axis 0.0 0.0 90.0 xyz
      dof ry rz rx
   end
   begin
      id 19
      name RightHand
      direction -1.000000 0.000000 0.000000
      length 0.000000
      axis 0.0 0.0 90.0 xyz
      dof rx ry rz
   end
   begin
      id 20
      name RightHand_dum1
      direction -1.000000 0.000000 0.000000
      length 3.937000
      axis 0.0 0.0 90.0 xyz
   end
   begin
      id 21
      name RightHand_dum2
      direction 0.000000 0.000000 0.000000
      length 0.000000
      axis 0.0 0.0 90.0 xyz
   end
   begin
      id 22
      name RightHandThumb1
      direction 0.000000 0.000000 1.000000
      length 3.937000
      axis 0.0 0.0 90.0 xyz
      dof rx rz ry
   end
   begin
      id 23
      name LeftShoulder
      direction 1.000000 0.000000 0.000000
      length 7.708937
      axis 0.0 0.0 -90.0 xyz
      dof rx ry rz
   end
   begin
      id 24
      name LeftArm
      direction 1.000000 0.000000 0.000000
      length 11.521345
      axis 0.0 0.0 -90.0 xyz
      dof rx ry rz
   end
   begin
      id 25
      name LeftForeArm
      direction 1.000000 0.000000 0.000000
      length 10.175898
      axis 0.0 0.0 -90.0 xyz
      dof ry rz rx
   end
   begin
      id 26
      name LeftHand
      direction 1.000000 0.000000 0.000000
      length 0.000000
      axis 0.0 0.0 -90.0 xyz
      dof rx ry rz
   end
   begin
      id 27
      name LeftHand_dum1
      direction 1.000000 0.000000 0.000000
      length 3.937000
      axis 0.0 0.0 -90.0 xyz
   end
   begin
      id 28
      name LeftHand_dum2
      direction 0.000000 0.000000 0.000000
      length 0.000000
      axis 0.0 0.0 -90.0 xyz
   end
   begin
      id 29
      name LeftHandThumb1
      direction 0.000000 0.000000 1.000000
      length 3.937000
      axis 0.0 0.0 -90.0 xyz
      dof rx rz ry
   end
   begin
      id 30
      name Head
      direction 0.000000 1.000000 0.000000
      length 4.527550
      axis 0.0 0.0 0.0 xyz
      dof rx ry rz
   end
:hierarchy
   begin
      root RightUpLeg_dum LeftUpLeg_dum Spine_dum
      RightUpLeg_dum RightUpLeg
      LeftUpLeg_dum LeftUpLeg
      Spine_dum Spine
      RightUpLeg RightLeg
      RightLeg RightFoot
      RightFoot RightToeBase
      LeftUpLeg LeftLeg
      LeftLeg LeftFoot
      LeftFoot LeftToeBase
      Spine Spine_dum1 Spine_dum2 Spine_dum3
      Spine_dum1 RightShoulder
      Spine_dum2 LeftShoulder
      Spine_dum3 Head
      RightShoulder RightArm
      RightArm RightForeArm
      RightForeArm RightHand
      RightHand RightHand_dum1 RightHand_dum2
      RightHand_dum2 RightHandThumb1
      LeftShoulder LeftArm
      LeftArm LeftForeArm
      LeftForeArm LeftHand
      LeftHand LeftHand_dum1 LeftHand_dum2
      LeftHand_dum2 LeftHandThumb1
   end

# File created by Blade
# Date/Time:  Thu Jan 22 16:31:11 2015
# Frame Rate: 120.000 fps
#------------------------------------------------------
:FULLY-SPECIFIED
:DEGREES
160
root 14.340112 33.476093 4.764705 -2.848452 11.715432 2.162732
RightUpLeg 18.546159 -11.771586 -29.342107
RightLeg -4.640500 -0.000000 0.000000
RightFoot -11.298803 -15.140415 35.012159
RightToeBase 12.011349 -0.000000 -0.000000
LeftUpLeg -18.641579 16.355819 19.692416
LeftLeg 39.757963 -0.000000 -0.000000
LeftFoot -7.059045 5.431762 -30.032986
LeftToeBase 2.819785 -0.000000 -0.000000
Spine 16.691414 -9.736354 3.621404
RightShoulder -7.096457 -18.423691 -19.675964
RightArm 8.344917 28.019825 47.478991
RightForeArm 10.365675 -0.000000 24.332643
RightHand 6.313901 -0.000000 -8.807462
RightHandThumb1 -24.326973 -0.000000 -32.862282
LeftShoulder -26.054976 35.551135 8.402444
LeftArm 50.243437 -43.432336 -65.251493
LeftForeArm 37.440602 0.000000 11.685829
LeftHand -17.010982 -0.000000 -3.759933
LeftHandThumb1 -26.253704 0.000000 33.147579
Head -0.708303 16.048921 -7.262696
161
root 14.576380 33.389286 4.732775 -2.646511 11.790718 2.149931
RightUpLeg 18.281130 -11.572155 -29.583613
RightLeg -4.428742 -0.000000 0.000000
RightFoot -11.347480 -15.430406 35.206353
RightToeBase 11.751302 -0.000000 -0.000000
LeftUpLeg -19.457935 16.549817 19.346568
LeftLeg 41.062251 -0.000000 -0.000000
LeftFoot -7.910293 4.795082 -29.693743
LeftToeBase 2.976802 -0.000000 -0.000000
Spine 16.750154 -9.579848 3.441657
RightShoulder -7.098831 -18.194997 -19.665883
RightArm 8.003384 28.297848 47.607992
RightForeArm 10.687607 0.000000 24.188660
RightHand 6.419181 -0.000000 -8.816458
RightHandThumb1 -24.326973 -0.000000 -32.862282
LeftShoulder -25.950383 35.446168 8.508276
LeftArm 50.265066 -43.438394 -65.321961
LeftForeArm 37.444737 0.000000 11.682424
LeftHand -16.930657 -0.000000 -3.786052
LeftHandThumb1 -26.253704 0.000000 33.147579
Head -0.797543 15.777452 -7.155568
162
root 14.801467 33.302131 4.701336 -2.444311 11.934112 2.114114
RightUpLeg 18.077731 -11.471349 -29.809085
RightLeg -4.262509 -0.000000 0.000000
RightFoot -11.392396 -15.686661 35.424951
RightToeBase 11.707626 -0.000000 -0.000000
LeftUpLeg -20.253003 16.533274 19.062106
LeftLeg 42.278347 -0.000000 -0.000000
LeftFoot -8.717842 4.110808 -29.496372
LeftToeBase 3.163444 -0.000000 -0.000000
Spine 16.803279 -9.536704 3.266481
RightShoulder -7.143830 -18.170790 -19.658196
RightArm 7.986076 28.660227 47.893384
RightForeArm 10.938632 0.000000 23.961793
RightHand 6.556721 0.000000 -8.885610
RightHandThumb1 -24.326973 -0.000000 -32.862282
LeftShoulder -25.945190 35.427724 8.504445
LeftArm 50.430316 -43.508394 -65.496761
LeftForeArm 37.377353 -0.000000 11.697789
LeftHand -17.075046 -0.000000 -3.677136
LeftHandThumb1 -26.253704 0.000000 33.147579
Head -0.896280 15.574964 -7.074283
163
root 15.019716 33.215937 4.667233 -2.268870 12.115377 2.095733
RightUpLeg 17.930873 -11.424954 -30.073339
RightLeg -4.098652 -0.000000 0.000000
RightFoot -11.414773 -15.856804 35.676038
RightToeBase 11.703627 -0.000000 -0.000000
LeftUpLeg -20.992369 16.377410 18.789344
LeftLeg 43.403260 -0.000000 -0.000000
LeftFoot -9.463456 3.438813 -29.305071
LeftToeBase 3.279162 -0.000000 -0.000000
Spine 16.908386 -9.497334 3.055346
RightShoulder -7.104012 -17.986652 -19.666456
RightArm 7.686333 28.968186 48.065735
RightForeArm 11.255069 0.000000 23.814484
RightHand 6.594052 -0.000000 -8.940399
RightHandThumb1 -24.326973 -0.000000 -32.862282
LeftShoulder -25.888019 35.397223 8.564716
LeftArm 50.627200 -43.571956 -65.718538
LeftForeArm 37.464054 0.000000 11.673224
LeftHand -17.094291 -0.000000 -3.537658
LeftHandThumb1 -26.253704 0.000000 33.147579
Head -1.007370 15.322174 -6.982425
164
root 15.230022 33.128664 4.636377 -2.116017 12.289176 2.107566
RightUpLeg 17.819781 -11.399272 -30.376969
RightLeg -3.943736 -0.000000 0.000000
RightFoot -11.440890 -15.985071 35.899840
RightToeBase 11.611133 -0.000000 -0.000000
LeftUpLeg -21.637825 16.202251 18.528794
LeftLeg 44.424010 -0.000000 -0.000000
LeftFoot -10.184812 2.700615 -29.069164
LeftToeBase 3.445654 -0.000000 -0.000000
Spine 17.044643 -9.442805 2.782839
RightShoulder -7.145437 -18.026464 -19.609838
RightArm 7.675010 29.336853 48.332529
RightForeArm 11.576057 -0.000000 23.630848
RightHand 6.596625 -0.000000 -9.015090
RightHandThumb1 -24.326973 -0.000000 -32.862282
LeftShoulder -25.841132 35.426608 8.606460
LeftArm 50.817863 -43.628943 -65.864538
LeftForeArm 37.416747 0.000000 11.651157
LeftHand -17.149395 0.000000 -3.532661
LeftHandThumb1 -26.253704 0.000000 33.147579
Head -1.094899 15.100222 -6.870627
